<svg id="Layer_1" data-name="Layer 1" xmlns="http://www.w3.org/2000/svg" xmlns:xlink="http://www.w3.org/1999/xlink" viewBox="0 0 708 403.2"><defs><style>.cls-1,.cls-39{fill:none;}.cls-1{clip-rule:evenodd;}.cls-2{fill:#76c5fb;}.cls-11,.cls-12,.cls-13,.cls-16,.cls-17,.cls-2,.cls-21,.cls-22,.cls-23,.cls-24,.cls-27,.cls-29,.cls-30,.cls-31,.cls-38,.cls-44,.cls-46,.cls-47,.cls-50,.cls-52,.cls-53,.cls-56,.cls-59,.cls-6,.cls-67,.cls-68,.cls-7,.cls-8,.cls-9{fill-rule:evenodd;}.cls-3{clip-path:url(#clip-path);}.cls-4{fill:url(#linear-gradient);}.cls-5,.cls-7{fill:#0071ae;}.cls-6{fill:#eef4f8;}.cls-43,.cls-8{fill:#fff;}.cls-36,.cls-9{fill:#fca700;}.cls-10,.cls-13{fill:#df641e;}.cls-11{fill:#93d9ff;}.cls-12,.cls-14{fill:#ffd115;}.cls-15,.cls-17{fill:#8ac80c;}.cls-16{fill:#3c9b14;}.cls-18,.cls-27{fill:#db4459;}.cls-19{clip-path:url(#clip-path-2);}.cls-20{fill:url(#linear-gradient-2);}.cls-21{fill:#e50013;}.cls-22{fill:#e26171;}.cls-23,.cls-28{fill:#c73149;}.cls-24{fill:#ee9fa9;}.cls-25{clip-path:url(#clip-path-3);}.cls-26{fill:url(#linear-gradient-3);}.cls-29{fill:#e26373;}.cls-30{fill:#d65f6e;}.cls-31{fill:#fae2e8;}.cls-32{fill:#e58927;}.cls-33{fill:#ffef95;}.cls-34{fill:#fbca0d;}.cls-35,.cls-38{fill:#ffd915;}.cls-37{fill:#ec830e;}.cls-39{stroke:#fca700;stroke-miterlimit:10;stroke-width:0.22px;}.cls-40{fill:#fda600;}.cls-41{fill:#3882c8;}.cls-42,.cls-46{fill:#26a0f8;}.cls-44{fill:#3ea7df;}.cls-45{fill:#0089c6;}.cls-47{fill:#0894f9;}.cls-48{fill:#e99136;}.cls-49{fill:#f5ad66;}.cls-50{fill:#d8e7ff;}.cls-51{fill:#ec3452;}.cls-52{fill:#3880a7;}.cls-53{fill:#1e2187;}.cls-54{clip-path:url(#clip-path-4);}.cls-55{fill:url(#linear-gradient-4);}.cls-56{fill:#38a9f9;}.cls-57{fill:#a5dbfd;}.cls-58{fill:#56b4f4;}.cls-59{fill:#2046a7;}.cls-60{fill:#ef8200;}.cls-61{fill:#edeeee;}.cls-62{fill:#1962a5;}.cls-63{fill:#e8546b;}.cls-64{fill:#f9df19;}.cls-65{fill:#1677ff;}.cls-66{fill:#f6af46;}.cls-67{fill:#4eb3fa;}.cls-68{fill:#009844;}.cls-69{fill:#d4e9d7;}</style><clipPath id="clip-path"><path class="cls-1" d="M686.19,297.28l-113.93-.16a12.88,12.88,0,0,0-12.85,12.81L559.33,369a12.87,12.87,0,0,0,12.81,12.85l113.93.16a12.87,12.87,0,0,0,12.85-12.81l.08-59.11a12.87,12.87,0,0,0-12.81-12.85"/></clipPath><linearGradient id="linear-gradient" x1="629.16" y1="368.2" x2="629.17" y2="246.73" gradientUnits="userSpaceOnUse"><stop offset="0" stop-color="#26c4ff"/><stop offset="0.43" stop-color="#80dcff"/><stop offset="1" stop-color="#fff"/></linearGradient><clipPath id="clip-path-2"><path class="cls-1" d="M128.39,212.24c55.12,0,99.79,35.63,99.79,79.58s-44.67,79.57-99.79,79.57S28.6,335.76,28.6,291.82s44.68-79.58,99.79-79.58"/></clipPath><linearGradient id="linear-gradient-2" x1="128.39" y1="355.5" x2="128.39" y2="239.73" gradientUnits="userSpaceOnUse"><stop offset="0" stop-color="#df5367"/><stop offset="1" stop-color="#f5c0cb"/></linearGradient><clipPath id="clip-path-3"><path class="cls-1" d="M10,290.72c0,.62,0,1.25,0,1.87,0-.62,0-1.25,0-1.87m.22-4.93c-.07,1.06-.13,2.12-.17,3.18C10.11,287.91,10.17,286.85,10.24,285.79Zm.16-2-.15,1.86Zm.17-1.64c-.05.44-.09.87-.14,1.31C10.48,283,10.52,282.58,10.57,282.14Zm.19-1.65c0,.41-.1.81-.14,1.22C10.66,281.3,10.71,280.9,10.76,280.49Zm.39-2.73c-.13.81-.25,1.63-.35,2.44C10.9,279.39,11,278.57,11.15,277.76Zm.17-1.1c-.05.33-.11.66-.16,1C11.21,277.32,11.27,277,11.32,276.66Zm.16-.91-.13.77Zm.17-.91-.12.64Zm.21-1.1-.15.75Zm.18-.91-.15.72Zm.4-1.83c-.13.55-.25,1.11-.36,1.66C12.19,272.11,12.31,271.55,12.44,271Zm.17-.73-.17.72Zm.17-.73-.16.66Zm.18-.73-.15.63Zm.19-.73-.16.63Zm.14-.55-.12.46Zm.2-.73-.14.5Zm.2-.73-.15.56Zm.21-.73-.18.63Zm25.28,56.17H14.25c9-29.06,0-57.36,0-57.36-.12.4-.23.79-.35,1.18.12-.39.23-.78.35-1.18H39.18V321.5Z"/></clipPath><linearGradient id="linear-gradient-3" x1="24.59" y1="315.83" x2="24.59" y2="274" xlink:href="#linear-gradient-2"/><clipPath id="clip-path-4"><path class="cls-1" d="M481.53,224.77H620.32a11.66,11.66,0,0,1,11.62,11.62V382h-162V236.39a11.66,11.66,0,0,1,11.62-11.62"/></clipPath><linearGradient id="linear-gradient-4" x1="550.92" y1="439.02" x2="550.92" y2="250.35" gradientUnits="userSpaceOnUse"><stop offset="0" stop-color="#6eb6ff"/><stop offset="0.13" stop-color="#87c3ff"/><stop offset="0.42" stop-color="#badcfe"/><stop offset="0.67" stop-color="#deeefd"/><stop offset="0.87" stop-color="#f5f9fd"/><stop offset="1" stop-color="#fdfdfd"/></linearGradient></defs><path class="cls-2" d="M680.49,337.93c.27,1.65-1.27,4.3-2.44,4.78-.13-.24-.91-1.24-1.42-2-1.12-1.66,1.51-5.13,2.27-4.36Z"/><g class="cls-3"><rect class="cls-4" x="559.32" y="297.11" width="139.69" height="84.95"/></g><rect class="cls-5" x="622" y="277.69" width="14.31" height="139.58" transform="translate(280.79 976.14) rotate(-89.92)"/><path class="cls-6" d="M684.2,360.58h-3.58a6.92,6.92,0,0,0-6.91,6.9h0a6.91,6.91,0,0,0,6.89,6.91h3.58a6.94,6.94,0,0,0,6.92-6.9h0a6.94,6.94,0,0,0-6.9-6.92"/><path class="cls-6" d="M689.81,319.92l-29.8,0a2.33,2.33,0,0,0-2.33,2.32v6.23a2.33,2.33,0,0,0,2.32,2.33l29.8,0a2.33,2.33,0,0,0,2.33-2.32v-6.23a2.34,2.34,0,0,0-2.32-2.33"/><path class="cls-6" d="M651.49,319.85l-39.29,0a2.32,2.32,0,0,0-2.32,2.32v6.24a2.33,2.33,0,0,0,2.32,2.32l39.28,0a2.34,2.34,0,0,0,2.33-2.32v-6.23a2.34,2.34,0,0,0-2.32-2.33"/><path class="cls-6" d="M664.43,360h-3.58a6.94,6.94,0,0,0-6.92,6.9h0a6.92,6.92,0,0,0,6.9,6.91h3.58a6.94,6.94,0,0,0,6.92-6.9h0a6.92,6.92,0,0,0-6.9-6.91"/><path class="cls-7" d="M570.5,310.5h17a2.26,2.26,0,0,1,2.26,2.26v17.52a2.27,2.27,0,0,1-2.26,2.26h-17a2.27,2.27,0,0,1-2.26-2.26V312.76a2.26,2.26,0,0,1,2.26-2.26"/><path class="cls-8" d="M585.7,326h-6.15v2.14h6.15Zm0-4h-2.15V325h2.15Zm-2.15-4V321h2.15V318Zm-8.94,4h-2.14V325h2.14Zm0-4h-2.14V321h2.14Zm.93,0V325h7.08V318Zm-3.07,8v2.14h6.15V326Zm6.15-11.08h-6.15V317h6.15Zm7.08,0h-6.15V317h6.15Zm-14.17-.94h15.1V329h-15.1Z"/><path class="cls-6" d="M577.55,360h20.12a6.93,6.93,0,0,1,6.91,6.91h0a6.93,6.93,0,0,1-6.91,6.91H577.55a6.93,6.93,0,0,1-6.91-6.91h0a6.93,6.93,0,0,1,6.91-6.91"/><path class="cls-2" d="M304.78,109c.26,1.65-1.27,4.31-2.44,4.78-.13-.23-.91-1.24-1.43-2-1.11-1.66,1.51-5.13,2.28-4.36Z"/><path class="cls-9" d="M310.47,68.36,196.55,68.2A12.87,12.87,0,0,0,183.7,81l-.08,59.11A12.86,12.86,0,0,0,196.43,153l113.92.16a12.86,12.86,0,0,0,12.85-12.81l.09-59.11a12.87,12.87,0,0,0-12.82-12.85"/><rect class="cls-10" x="246.29" y="48.77" width="14.31" height="139.58" transform="translate(134.52 371.83) rotate(-89.92)"/><path class="cls-11" d="M308.49,131.67h-3.58a6.94,6.94,0,0,0-6.92,6.9h0a6.92,6.92,0,0,0,6.9,6.91h3.58a6.92,6.92,0,0,0,6.91-6.9h0a6.91,6.91,0,0,0-6.89-6.91"/><path class="cls-12" d="M314.09,91l-29.8,0A2.34,2.34,0,0,0,282,93.28v6.24a2.32,2.32,0,0,0,2.32,2.32l29.8,0a2.32,2.32,0,0,0,2.32-2.32V93.33A2.33,2.33,0,0,0,314.09,91"/><path class="cls-12" d="M275.77,90.93l-39.28,0a2.34,2.34,0,0,0-2.33,2.32v6.24a2.34,2.34,0,0,0,2.32,2.33l39.29,0a2.33,2.33,0,0,0,2.32-2.32V93.26a2.34,2.34,0,0,0-2.32-2.33"/><path class="cls-12" d="M288.72,131.05h-3.59a6.91,6.91,0,0,0-6.91,6.89h0a6.93,6.93,0,0,0,6.89,6.92h3.59a6.92,6.92,0,0,0,6.91-6.89h0a6.92,6.92,0,0,0-6.89-6.92"/><path class="cls-13" d="M194.78,81.58h17A2.26,2.26,0,0,1,214,83.84v17.52a2.26,2.26,0,0,1-2.26,2.26h-17a2.26,2.26,0,0,1-2.26-2.26V83.84a2.27,2.27,0,0,1,2.26-2.26"/><path class="cls-8" d="M210,97h-6.15v2.15H210Zm0-4h-2.14v3.07H210Zm-2.14-4v3.07H210V89Zm-8.94,4h-2.15v3.07h2.15Zm0-4h-2.15v3.07h2.15Zm.93,0v7.07h7.07V89Zm-3.08,8v2.15h6.15V97ZM202.9,86h-6.15V88.1h6.15ZM210,86h-6.15V88.1H210ZM195.82,85h15.09v15.09H195.82Z"/><rect class="cls-14" x="194.92" y="133.3" width="33.94" height="5.66"/><rect class="cls-15" x="476" y="187.73" width="202.15" height="103.64" transform="translate(7.3 495.98) rotate(-46.77)"/><path class="cls-16" d="M619.06,164.42a20.84,20.84,0,0,1-23.14.2l-92.2,98.09A20.88,20.88,0,0,1,505,285.82l30.4,28.58a20.84,20.84,0,0,1,23.14-.2l92.2-98.09A20.88,20.88,0,0,1,649.46,193ZM613,146.18l55,51.74a9,9,0,0,1,.39,12.67L554.09,332.25a9,9,0,0,1-12.67.39l-55-51.74a9,9,0,0,1-.39-12.67L600.33,146.57A9,9,0,0,1,613,146.18Z"/><path class="cls-16" d="M554,221.51a28.51,28.51,0,1,1,1.25,40.29A28.51,28.51,0,0,1,554,221.51"/><path class="cls-17" d="M564.11,228l-3.91-4.56-4.3,4.74,5.07,3.2q-4.5,6.36-1.21,12.44l6.74-4a4.54,4.54,0,0,1,.84-5.52q2-2.22,3.4-1a1.59,1.59,0,0,1,.55,1.17,7,7,0,0,1-1.11,2.73,53.54,53.54,0,0,0-3.45,6.91,8.29,8.29,0,0,0-.21,4.82,8.64,8.64,0,0,0,2.79,4.49,9.13,9.13,0,0,0,7.06,2.39A13.48,13.48,0,0,0,584.2,252l3.81,4.74,4.57-5-5.31-3.23q5-7.14.41-14.2l-6.74,5.23c1.35,2.17,1.07,4.33-.86,6.5-1.5,1.69-2.72,2.13-3.65,1.3a1.71,1.71,0,0,1-.61-1.6,8.12,8.12,0,0,1,1.14-2.74q4.06-7,3.61-10.21a8.59,8.59,0,0,0-2.87-5.38,9.59,9.59,0,0,0-6.28-2.47q-3.6-.09-7.31,3"/><path class="cls-16" d="M600.42,201.46a10.07,10.07,0,1,1,.35,14.23,10.06,10.06,0,0,1-.35-14.23"/><path class="cls-16" d="M617.62,189.69a5.75,5.75,0,1,1,.2,8.12,5.75,5.75,0,0,1-.2-8.12"/><path class="cls-16" d="M535.6,268a10.07,10.07,0,1,0,14.23-.5,10.08,10.08,0,0,0-14.23.5"/><path class="cls-16" d="M524.89,285.84a5.75,5.75,0,1,0,8.12-.28,5.75,5.75,0,0,0-8.12.28"/><rect class="cls-15" x="472.25" y="157.71" width="202.15" height="103.64" transform="matrix(0.54, -0.84, 0.84, 0.54, 85.99, 577.1)"/><path class="cls-16" d="M601.16,128.1a20.87,20.87,0,0,1-22.73,4.34l-73.12,113A20.85,20.85,0,0,1,510.67,268l35,22.66a20.83,20.83,0,0,1,22.72-4.33l73.13-113a20.84,20.84,0,0,1-5.36-22.5Zm-9.23-16.87,63.43,41A9,9,0,0,1,658,164.66L567.33,304.85a9,9,0,0,1-12.39,2.66l-63.44-41a9,9,0,0,1-2.65-12.39l90.69-140.19A9,9,0,0,1,591.93,111.23Z"/><path class="cls-16" d="M547.35,195.93a28.5,28.5,0,1,1,8.46,39.41,28.51,28.51,0,0,1-8.46-39.41"/><path class="cls-17" d="M558.5,200.48l-4.66-3.79-3.39,5.43,5.57,2.25q-3.28,7,1,12.45l5.9-5.19a4.52,4.52,0,0,1-.16-5.58q1.53-2.53,3.17-1.54a1.56,1.56,0,0,1,.75,1.05,6.74,6.74,0,0,1-.6,2.89,51.86,51.86,0,0,0-2.15,7.41,8.28,8.28,0,0,0,.65,4.79,8.64,8.64,0,0,0,3.55,3.91,9.08,9.08,0,0,0,7.38,1.08,13.48,13.48,0,0,0,7-5.12l4.59,4,3.61-5.7L585,216.58q3.62-7.92-2.14-14l-5.69,6.35q2.58,2.84.32,6.55-1.77,2.9-3.36,1.94a1.73,1.73,0,0,1-.89-1.48,8.15,8.15,0,0,1,.63-2.89q2.74-7.59,1.72-10.69a8.52,8.52,0,0,0-3.79-4.78,9.55,9.55,0,0,0-6.61-1.31c-2.38.37-4.6,1.78-6.66,4.25"/><path class="cls-16" d="M589.46,167.87a10.07,10.07,0,1,1,2.9,13.94,10.08,10.08,0,0,1-2.9-13.94"/><path class="cls-16" d="M604.28,153.22a5.75,5.75,0,1,1,1.65,7.95,5.74,5.74,0,0,1-1.65-7.95"/><path class="cls-16" d="M537.62,244.92a10.07,10.07,0,1,0,13.9-3,10.06,10.06,0,0,0-13.9,3"/><path class="cls-16" d="M530.28,264.43a5.75,5.75,0,1,0,7.94-1.74,5.74,5.74,0,0,0-7.94,1.74"/><rect class="cls-15" x="456.77" y="133.04" width="202.15" height="103.64" transform="translate(160.76 618.09) rotate(-65.83)"/><path class="cls-16" d="M573,100.15a20.86,20.86,0,0,1-21.8,7.74L496.08,230.71a20.84,20.84,0,0,1,8.71,21.43l38.07,17.09a20.86,20.86,0,0,1,21.8-7.74l55.13-122.82a20.84,20.84,0,0,1-8.71-21.43ZM561.33,84.88l68.93,30.94a9,9,0,0,1,4.5,11.85L566.39,280a9,9,0,0,1-11.85,4.51l-68.93-30.94a9,9,0,0,1-4.5-11.85L549.48,89.39A9,9,0,0,1,561.33,84.88Z"/><path class="cls-16" d="M530.12,175.36A28.5,28.5,0,1,1,544.45,213a28.5,28.5,0,0,1-14.33-37.68"/><path class="cls-17" d="M541.63,179.42l-5.35-2.73,3.6-5.29,4.3,4.18q5.13-5.85,11.81-4.08l-2.36,7.5a4.53,4.53,0,0,0-5.17,2.1q-1.69,2.43-.13,3.53a1.6,1.6,0,0,0,1.27.26,7,7,0,0,0,2.4-1.72,53.26,53.26,0,0,1,5.9-5,8.31,8.31,0,0,1,4.65-1.34,8.6,8.6,0,0,1,5,1.67,9.12,9.12,0,0,1,4,6.31,13.46,13.46,0,0,1-1.84,8.5l5.5,2.59-3.76,5.61-4.37-4.42q-5.8,6.51-13.72,3.71l3.51-7.77q3.64,1.22,6.12-2.35,1.95-2.79.42-3.85a1.73,1.73,0,0,0-1.71-.23,8.12,8.12,0,0,0-2.39,1.75q-5.84,5.58-9.09,5.9a8.56,8.56,0,0,1-5.9-1.54,9.59,9.59,0,0,1-3.87-5.52,11,11,0,0,1,1.2-7.81"/><path class="cls-16" d="M567.48,141.24a10.07,10.07,0,1,1,5,13.34,10.08,10.08,0,0,1-5-13.34"/><path class="cls-16" d="M579.9,124.5a5.75,5.75,0,1,1,2.84,7.62,5.75,5.75,0,0,1-2.84-7.62"/><path class="cls-16" d="M527.93,225.26a10.06,10.06,0,1,0,13.28-5.12,10.07,10.07,0,0,0-13.28,5.12"/><path class="cls-16" d="M523.64,245.66a5.74,5.74,0,1,0,7.58-2.92,5.74,5.74,0,0,0-7.58,2.92"/><path class="cls-18" d="M234.93,299.33a13.63,13.63,0,0,0-4.08-5,15.82,15.82,0,0,0-2.22,5.68,16.2,16.2,0,0,0-.23,4.77,9.66,9.66,0,0,0,1,3.68,3.18,3.18,0,0,0,3.75,1.77c1.93-.47,2.93-2.25,3.09-4.47h0a13.12,13.12,0,0,0-1.37-6.41m-22.7-2.52a1.86,1.86,0,0,1-2.71-.53,2.16,2.16,0,0,1,.49-2.89c8.05-5.93,14.83-6.44,19.94-4.28a13.72,13.72,0,0,1,7.18-3.69c9.55-2.47,17,10.46,15.57,14.12-1.79-2.05-5-12.16-14.91-10a9.84,9.84,0,0,0-4.17,1.8,17.75,17.75,0,0,1,4.77,6.12,17.41,17.41,0,0,1,1.78,8.63h0c-.3,4-2.26,7.25-6.11,8.19-3.64.89-6.33-.75-8-3.71a14.22,14.22,0,0,1-1.56-5.32,21.19,21.19,0,0,1,.27-6.07,20.71,20.71,0,0,1,2.46-6.62C223.38,291.45,218.32,292.32,212.23,296.81Z"/><g class="cls-19"><rect class="cls-20" x="28.6" y="212.24" width="199.58" height="159.15"/></g><path class="cls-21" d="M163.65,225.09c-9.47-2.47-25.23-6-35.54-6s-24.08,3.38-33.24,5.68l1.69,6.54c.9-.23,6-1.68,6.93-1.89a110.64,110.64,0,0,1,51.14.46c.62.15,6.69,1.62,7.31,1.79Z"/><path class="cls-22" d="M166.34,381.57V347.72l-1.79,2.94a96.18,96.18,0,0,1-23,12.36l2,14.62.72,3.93Z"/><path class="cls-23" d="M166.34,364V349.76l-1.69.74-.1.16a96.18,96.18,0,0,1-23,12.36l1.35,9.77c8.53-2.76,16.17-5.2,23.46-8.81"/><path class="cls-24" d="M54,220.33h0c.63.61,1.32,1.3,2.08,2.06h0c1.07.46,12.32,13.82,12.16,14.19A50.58,50.58,0,0,1,71,240.87s.3.5.35.58h0c.32.57.62,1.14.9,1.7h0l.08.15,0,0h0c.21.44.41.86.59,1.29.09.2.17.4.25.6a29.3,29.3,0,0,1-6.71,3.16h0c-.39.13-.78.26-1.2.38h0c-.27.09-.55.16-.83.24h0c-.42.12-.86.23-1.31.33h0c-1,.23-2.07.42-3.19.56h0c-.45.06-.92.11-1.39.15h0l-.3,0h0l-.29,0h0l-.29,0h0c-.54,0-1.09,0-1.64,0h-.74a30.22,30.22,0,0,1-8.42-1.43L51,217.44h0c.12.11,1.29,1.17,3.06,2.89"/><path class="cls-22" d="M66.58,381.57V347.72l1.79,2.94a96,96,0,0,0,23,12.36l-2,14.62-.72,3.93Z"/><path class="cls-23" d="M66.58,360.63V349.76l1.69.74.1.16a96,96,0,0,0,23,12.36l-1.17,8.46a108.53,108.53,0,0,1-23.64-10.85"/><path class="cls-24" d="M61.81,211.15h0c.62.61,1.32,1.3,2.07,2.06h0C65,213.67,76.22,227,76.06,227.4c0,0,2.83,4.14,2.77,4.28a6,6,0,0,1,.34.58h0c.32.57.61,1.13.89,1.7h0l.07.15v0l0,0c.21.43.4.85.58,1.28.09.2.17.4.25.6a29.35,29.35,0,0,1-6.7,3.16h0l-1.19.37h0l-.83.23h0c-.42.12-.85.23-1.3.33h0a32.27,32.27,0,0,1-3.18.56h0l-1.39.14h0l-.29,0h0l-.29,0h0l-.29,0h0c-.53,0-1.08,0-1.64,0h-.73a30.28,30.28,0,0,1-8.43-1.43l4.12-31.29h0c.11.11,1.29,1.17,3.05,2.9"/><g class="cls-25"><rect class="cls-26" x="10" y="264.15" width="29.18" height="57.35"/></g><path class="cls-27" d="M208.59,244.45c12.31,13.24,19.59,29.62,19.59,47.37,0,43.94-44.67,79.57-99.79,79.57-41.8,0-77.59-20.49-92.44-49.57C54.13,341.37,83.28,354,116.14,354c55.11,0,99.79-35.62,99.79-79.57a65.62,65.62,0,0,0-7.34-30"/><path class="cls-28" d="M52.34,261.91a2.27,2.27,0,0,1-2.83.49,1.59,1.59,0,0,1-.58-2.41,14.43,14.43,0,0,1,6.85-4.77,15.21,15.21,0,0,1,5.67-.76A12.31,12.31,0,0,1,66.78,256l.1.06a9.5,9.5,0,0,1,3.93,4.26,1.67,1.67,0,0,1-1.17,2.26,2.18,2.18,0,0,1-2.65-1,5.82,5.82,0,0,0-2.41-2.65l0,0a7.9,7.9,0,0,0-3.37-1,10.29,10.29,0,0,0-3.89.53,10.41,10.41,0,0,0-4.93,3.44"/><path class="cls-29" d="M17.44,308.53a109.85,109.85,0,0,0-2.92-44.38l-.35,1.18h0L14,266a.19.19,0,0,0,0,.1l-.16.56c0,.06,0,.11,0,.17l-.14.5-.06.23-.12.46a.29.29,0,0,0,0,.09l-.16.63a.38.38,0,0,0,0,.1l-.16.63s0,.07,0,.1l-.16.66s0,.05,0,.07l-.16.72s0,0,0,0l-.37,1.66c-.07.36-.15.72-.22,1.08l-.14.74c0,.12-.05.24-.07.36l-.12.64c0,.09,0,.18,0,.27l-.14.77c0,.05,0,.09,0,.14l-.16,1c-.15.94-.28,1.89-.4,2.84l-.15,1.22c0,.14,0,.28-.05.43l-.13,1.31,0,.33-.15,1.86c-.13,1.69-.2,3.38-.23,5.08l0,1.87a103.07,103.07,0,0,0,4.25,28.92,87.66,87.66,0,0,0,2.92-13"/><path class="cls-30" d="M125.88,258.6l-1.5-11.81h12.68L135,258.49q15.31,1.86,19.89,14.79L140,277.79q-2.22-6-9.22-6.12c-3.92,0-5.9,1.21-5.92,3.74a3.16,3.16,0,0,0,1,2.36c.66.65,2.48,1.32,5.49,2A101.56,101.56,0,0,1,146,283.91a16.34,16.34,0,0,1,7.38,6.11,17.06,17.06,0,0,1,2.87,10.07,18,18,0,0,1-5.9,13.55c-3.89,3.63-9.2,5.78-16,6.48l1.89,11.9-13.37.11,2.35-12.1q-17.15-2.2-21.41-18.3l16.65-2.94q2.07,7.32,10.69,7.39,6.74.07,6.77-3.62a3.43,3.43,0,0,0-1.54-3.05,16,16,0,0,0-5.54-2q-15.64-3.32-19.8-8.29A17,17,0,0,1,107,277.88a19,19,0,0,1,4.72-12.51q4.66-5.43,14.13-6.77"/><path class="cls-31" d="M125.72,256.5l-1.49-11.81h12.68l-2,11.71q15.31,1.85,19.89,14.79l-14.92,4.51q-2.22-6.06-9.22-6.12c-3.92,0-5.9,1.21-5.92,3.73a3.13,3.13,0,0,0,1,2.36c.66.66,2.48,1.32,5.49,2a103.19,103.19,0,0,1,14.73,4.12,16.43,16.43,0,0,1,7.38,6.12A17.06,17.06,0,0,1,156.14,298a18,18,0,0,1-5.9,13.55c-3.89,3.62-9.2,5.78-16,6.47l1.89,11.91-13.37.11,2.35-12.1q-17.15-2.21-21.41-18.31l16.65-2.93q2.07,7.31,10.69,7.39c4.49,0,6.75-1.16,6.77-3.63a3.42,3.42,0,0,0-1.54-3,16.09,16.09,0,0,0-5.54-2q-15.64-3.3-19.8-8.29a17,17,0,0,1-4.08-11.37,19,19,0,0,1,4.72-12.52q4.66-5.42,14.12-6.76"/><path class="cls-32" d="M153.83,217.11a26.35,26.35,0,1,0-49.69,12.3A112.41,112.41,0,0,1,151,229a26.19,26.19,0,0,0,2.81-11.91"/><path class="cls-33" d="M155.38,215.24a26.35,26.35,0,1,0-48.91,13.68,112.5,112.5,0,0,1,45,.19,26.1,26.1,0,0,0,3.9-13.87"/><path class="cls-34" d="M154.55,216.13a26.35,26.35,0,1,0-49.28,13,112.47,112.47,0,0,1,45.93-.12,26.25,26.25,0,0,0,3.35-12.92"/><path class="cls-35" d="M154.55,216.13v-.23l-52.69.13v.23a26.23,26.23,0,0,0,3.41,12.91,112.47,112.47,0,0,1,45.93-.12,26.25,26.25,0,0,0,3.35-12.92"/><path class="cls-36" d="M150.56,216.14a22.36,22.36,0,1,0-41.12,12.23,112.55,112.55,0,0,1,37.58-.1,22.25,22.25,0,0,0,3.54-12.13"/><path class="cls-37" d="M146.92,228.25l.16-.09-.07.11Zm-30.46-31.11c-4.46,5.06-6.4,10.77-6.39,15.21,0,6.65,2,11.69,5.23,15.16q-3,.36-5.84.85a22.35,22.35,0,0,1,7-31.22Z"/><path class="cls-35" d="M146.65,218.19a19.73,19.73,0,0,0-35.41-11.94,19.74,19.74,0,1,1,33,21.58h0a19.61,19.61,0,0,0,2.48-9.64"/><path class="cls-38" d="M126.89,206.91l-.48-3.83h4.11l-.66,3.8c3.31.4,5.46,2,6.45,4.8l-4.84,1.46a2.9,2.9,0,0,0-3-2c-1.28,0-1.92.39-1.92,1.21a1,1,0,0,0,.32.76,4.33,4.33,0,0,0,1.78.66,32.94,32.94,0,0,1,4.78,1.34,5.24,5.24,0,0,1,2.39,2,5.59,5.59,0,0,1,.93,3.27,5.91,5.91,0,0,1-1.91,4.4,8.35,8.35,0,0,1-4.43,2c-.8,0-1.6,0-2.41,0l-1.82,0a7.49,7.49,0,0,1-6.43-5.86l5.4-1a3.22,3.22,0,0,0,3.47,2.4c1.45,0,2.19-.38,2.19-1.18a1.1,1.1,0,0,0-.5-1,5.19,5.19,0,0,0-1.79-.64q-5.09-1.06-6.43-2.69a5.46,5.46,0,0,1-1.32-3.69,6.12,6.12,0,0,1,1.53-4.06,7.1,7.1,0,0,1,4.58-2.19"/><path class="cls-32" d="M110.92,109.58c12.85-9.82,27-13.37,34.64-5.73.5.49,2.47,3.18,2.89,3.75,7.05,9.35,3,25.75-10.7,36.2-15.2,12.1-32.17,11.25-39.22,1.89a25.08,25.08,0,0,1-2.46-4c-4-9.52,2.6-22.79,14.85-32.15"/><path class="cls-33" d="M108.44,105.52c13.45-10.28,30.07-11,37.12-1.67s1.87,25.28-11.58,35.55-30.08,11-37.13,1.67S95,115.8,108.44,105.52"/><path class="cls-34" d="M108,106.68c13.45-10.28,30.07-11,37.12-1.67s1.87,25.28-11.58,35.55-30.08,11-37.13,1.67S94.57,117,108,106.68"/><path class="cls-35" d="M108,106.68l.22-.16,25.54,33.88-.21.16c-13.46,10.28-30.08,11-37.13,1.67S94.57,117,108,106.68"/><path class="cls-36" d="M110,109.25c11.41-8.73,25.52-9.36,31.51-1.42s1.58,21.45-9.84,30.17-25.52,9.36-31.51,1.42S98.54,118,110,109.25Z"/><path class="cls-39" d="M110,109.25c11.41-8.73,25.52-9.36,31.51-1.42s1.58,21.45-9.84,30.17-25.52,9.36-31.51,1.42S98.54,118,110,109.25Z"/><path class="cls-37" d="M144.11,117.66a35.42,35.42,0,0,1-10.94,14.87c-19.75,15.09-34,5.4-32.62-12.53-3.81,6.94-4.24,14.31-.4,19.4,6,7.94,20.09,7.31,31.51-1.42,7.45-5.69,11.91-13.42,12.45-20.32"/><path class="cls-35" d="M110,113.21C120,105.51,132.5,105,137.78,112c3.09,4.1,3,9.87.46,15.5,3.82-6.37,4.4-13.29.86-18-5.29-7-17.74-6.45-27.82,1.26a30,30,0,0,0-9.14,11.13,31.17,31.17,0,0,1,7.82-8.64"/><path class="cls-38" d="M129.12,115.87l2.46-1.86,1.42,1.93-2.4,1.81q1.86,3.61-1.29,7.53l-3.71-2.06c1-1.24,1.1-2.35.38-3.33a1.3,1.3,0,0,0-2.06-.37,1.49,1.49,0,0,0-.55.74,3.11,3.11,0,0,0,.27,1.61,21.59,21.59,0,0,1,1.09,4,5.15,5.15,0,0,1-.67,2.94,8.65,8.65,0,0,1-2.56,2.91,8.49,8.49,0,0,1-5,1.89,6.09,6.09,0,0,1-4.47-1.84l-2.45,1.86-1.42-1.92,2.46-1.86c-1.37-2.71-.66-5.6,2.1-8.66l3.51,2.79c-1.25,1.41-1.42,2.72-.53,3.93q1,1.41,2.16.57a1.54,1.54,0,0,0,.67-1,3.46,3.46,0,0,0-.29-1.6c-1-2.68-1.2-4.69-.65-6a8.46,8.46,0,0,1,2.77-3.46,9.22,9.22,0,0,1,4.49-1.89,5.32,5.32,0,0,1,4.26,1.38"/><rect class="cls-40" x="92.01" y="166.18" width="62.41" height="8" transform="translate(-60.09 67.5) rotate(-24.84)"/><rect class="cls-40" x="94.53" y="177.63" width="7.91" height="8" transform="translate(-67.2 58.19) rotate(-24.85)"/><rect class="cls-14" x="101.7" y="174.29" width="8" height="8" transform="translate(-65.11 60.89) rotate(-24.84)"/><rect class="cls-36" x="108" y="166.56" width="28.78" height="8" transform="translate(-60.33 67.2) rotate(-24.84)"/><rect class="cls-37" x="134.89" y="157.98" width="12.1" height="8" transform="translate(-55.01 74.19) rotate(-24.84)"/><rect class="cls-10" x="96.89" y="173.76" width="56.41" height="0.76" transform="translate(-61.58 68.66) rotate(-24.84)"/><rect class="cls-41" x="193.31" y="183.62" width="143.26" height="197.95"/><polygon class="cls-42" points="193.31 381.57 193.31 183.62 336.57 183.62 193.31 381.57"/><polygon class="cls-43" points="328.46 336.68 328.82 368.34 201.48 368.34 201.48 193.13 328.46 193.13 328.46 336.68"/><path class="cls-44" d="M262.92,173a4.07,4.07,0,1,0,4.07,4.07,4.07,4.07,0,0,0-4.07-4.07m-11.56,4.07c1.38-4.08,5.18-7.51,11.56-7.51s10.18,3.43,11.56,7.51c7.75,0,20.29,5.48,21.73,14.34v4.69H229.63v-4.69C231.07,182.59,243.61,177.11,251.36,177.11Z"/><rect class="cls-45" x="229.63" y="191.45" width="66.58" height="4.7"/><path class="cls-42" d="M236.36,212.83l1.31-1.31a1.6,1.6,0,1,1,2.26,2.26l-3.37,3.37v10.06a4.22,4.22,0,0,1-4.19,4.2H219.26a4.23,4.23,0,0,1-4.2-4.2V214.1a4.18,4.18,0,0,1,1.23-3h0a4.19,4.19,0,0,1,3-1.24h13.11a4.22,4.22,0,0,1,4,2.93m-17.2,8a1.61,1.61,0,0,1,0-2.26,1.59,1.59,0,0,1,2.26,0c1,1,3,3.37,4.32,4.88l9.61-9.61a3,3,0,0,0-3-2.74H219.26a3,3,0,0,0-2.12.88,3,3,0,0,0-.88,2.12v13.11a3,3,0,0,0,.88,2.12,3,3,0,0,0,2.12.88h13.11a3,3,0,0,0,3-3v-8.86l-8.6,8.59h0l-.11.1a1.59,1.59,0,0,1-2.24-.21S220.65,222.31,219.16,220.83Z"/><path class="cls-42" d="M236.36,242l1.31-1.31a1.6,1.6,0,1,1,2.26,2.26l-3.37,3.36v10.07a4.2,4.2,0,0,1-4.19,4.19H219.26a4.22,4.22,0,0,1-4.2-4.19V243.26a4.18,4.18,0,0,1,1.23-3h0a4.18,4.18,0,0,1,3-1.23h13.11a4.18,4.18,0,0,1,3,1.23,4.12,4.12,0,0,1,1,1.7m-17.2,8a1.6,1.6,0,0,1,2.26-2.26c1,1,3,3.37,4.32,4.89l9.61-9.61a3,3,0,0,0-3-2.74H219.26a3,3,0,0,0-3,3v13.11a3,3,0,0,0,3,3h13.11a3,3,0,0,0,3-3V247.5l-8.6,8.59h0l-.11.09a1.59,1.59,0,0,1-2.24-.2S220.65,251.47,219.16,250Z"/><path class="cls-42" d="M236.36,271.14l1.31-1.3a1.59,1.59,0,1,1,2.26,2.25l-3.37,3.37v10.06a4.2,4.2,0,0,1-4.19,4.2H219.26a4.22,4.22,0,0,1-4.2-4.2V272.41a4.18,4.18,0,0,1,1.23-3h0a4.18,4.18,0,0,1,3-1.23h13.11a4.2,4.2,0,0,1,4,2.92m-17.2,8a1.6,1.6,0,0,1,2.26-2.26c1,1,3,3.37,4.32,4.89l9.61-9.62a3,3,0,0,0-3-2.74H219.26a3,3,0,0,0-2.12.88,3,3,0,0,0-.88,2.12v13.11a3,3,0,0,0,3,3h13.11a3,3,0,0,0,3-3v-8.86l-8.6,8.59h0l-.11.1a1.59,1.59,0,0,1-2.24-.21S220.65,280.62,219.16,279.14Z"/><path class="cls-42" d="M236.36,301.9l1.31-1.31a1.6,1.6,0,0,1,2.26,2.26l-3.37,3.37v10.06a4.22,4.22,0,0,1-4.19,4.2H219.26a4.23,4.23,0,0,1-4.2-4.2V303.17a4.18,4.18,0,0,1,1.23-3h0a4.18,4.18,0,0,1,3-1.23h13.11a4.2,4.2,0,0,1,4,2.92m-17.2,8a1.61,1.61,0,0,1,0-2.26,1.59,1.59,0,0,1,2.26,0c1,1,3,3.37,4.32,4.88l9.61-9.61a3,3,0,0,0-3-2.74H219.26a3,3,0,0,0-2.12.88,3,3,0,0,0-.88,2.12v13.11a3,3,0,0,0,.88,2.12,3,3,0,0,0,2.12.88h13.11a3,3,0,0,0,3-3v-8.86l-8.6,8.59h0l-.11.1a1.59,1.59,0,0,1-2.24-.21S220.65,311.38,219.16,309.9Z"/><path class="cls-42" d="M236.36,331.06l1.31-1.31a1.6,1.6,0,1,1,2.26,2.26l-3.37,3.36v10.07a4.2,4.2,0,0,1-4.19,4.19H219.26a4.22,4.22,0,0,1-4.2-4.19V332.33a4.18,4.18,0,0,1,1.23-3h0a4.18,4.18,0,0,1,3-1.23h13.11a4.18,4.18,0,0,1,3,1.23,4.12,4.12,0,0,1,1,1.7m-17.2,8a1.6,1.6,0,0,1,2.26-2.26c1,1,3,3.38,4.32,4.89l9.61-9.61a3,3,0,0,0-.87-1.86,3,3,0,0,0-2.11-.88H219.26a3,3,0,0,0-3,3v13.11a3,3,0,0,0,.88,2.11,3,3,0,0,0,2.12.88h13.11a3,3,0,0,0,3-3v-8.87l-8.6,8.59h0l-.11.09a1.59,1.59,0,0,1-2.24-.2S220.65,340.54,219.16,339.05Z"/><path class="cls-46" d="M248.72,214.9h25.07a1.78,1.78,0,0,1,1.78,1.77h0a1.78,1.78,0,0,1-1.78,1.78H248.72a1.78,1.78,0,0,1-1.77-1.78h0a1.77,1.77,0,0,1,1.77-1.77"/><path class="cls-46" d="M248.72,224.54h67.06a1.78,1.78,0,0,1,1.77,1.78h0a1.77,1.77,0,0,1-1.77,1.77H248.72a1.77,1.77,0,0,1-1.77-1.77h0a1.78,1.78,0,0,1,1.77-1.78"/><path class="cls-46" d="M248.72,243.85h25.07a1.78,1.78,0,1,1,0,3.55H248.72a1.78,1.78,0,0,1,0-3.55"/><path class="cls-46" d="M248.72,272.81h25.07a1.78,1.78,0,0,1,1.78,1.77h0a1.78,1.78,0,0,1-1.78,1.78H248.72a1.78,1.78,0,0,1-1.77-1.78h0a1.77,1.77,0,0,1,1.77-1.77"/><path class="cls-46" d="M248.72,301.76h25.07a1.78,1.78,0,0,1,1.78,1.78h0a1.78,1.78,0,0,1-1.78,1.77H248.72a1.77,1.77,0,0,1-1.77-1.77h0a1.78,1.78,0,0,1,1.77-1.78"/><path class="cls-46" d="M248.72,330.71h25.07a1.78,1.78,0,0,1,1.78,1.78h0a1.78,1.78,0,0,1-1.78,1.78H248.72a1.78,1.78,0,0,1-1.77-1.78h0a1.78,1.78,0,0,1,1.77-1.78"/><path class="cls-46" d="M248.72,253.49h67.06a1.78,1.78,0,0,1,1.77,1.78h0a1.78,1.78,0,0,1-1.77,1.78H248.72a1.78,1.78,0,0,1-1.77-1.78h0a1.78,1.78,0,0,1,1.77-1.78"/><path class="cls-46" d="M248.72,282.45h67.06a1.77,1.77,0,0,1,1.77,1.77h0a1.78,1.78,0,0,1-1.77,1.78H248.72a1.78,1.78,0,0,1-1.77-1.78h0a1.77,1.77,0,0,1,1.77-1.77"/><path class="cls-46" d="M248.72,311.4h67.06a1.78,1.78,0,0,1,1.77,1.78h0a1.77,1.77,0,0,1-1.77,1.77H248.72a1.77,1.77,0,0,1-1.77-1.77h0a1.78,1.78,0,0,1,1.77-1.78"/><path class="cls-46" d="M248.72,340.36h51.55a1.78,1.78,0,0,1,1.77,1.77h0a1.78,1.78,0,0,1-1.77,1.78H248.72a1.78,1.78,0,0,1-1.77-1.78h0a1.77,1.77,0,0,1,1.77-1.77"/><path class="cls-47" d="M469.48,125.7a17.16,17.16,0,0,1,17.15,17.16c0,.54,0,1.07-.07,1.59h.07v44.6H452.32V142.86a17.16,17.16,0,0,1,17.16-17.16"/><rect class="cls-48" x="326.49" y="152.87" width="165.51" height="228.7"/><polygon class="cls-49" points="326.49 381.57 326.49 152.87 492 152.87 326.49 381.57"/><polygon class="cls-43" points="482.64 329.7 483.06 366.28 335.93 366.28 335.93 163.86 482.64 163.86 482.64 329.7"/><path class="cls-50" d="M469.65,125.71h0ZM288.1,142.86V300.93h130c-.22,7.14.06,13.53.41,14.9a17.16,17.16,0,0,0,33.77-4.29V142.86a17.16,17.16,0,0,1,17.16-17.16H305.25A17.15,17.15,0,0,0,288.1,142.86Z"/><path class="cls-47" d="M275.79,328.7a17.15,17.15,0,0,1-17.15-17.16v-4.06h0V296.43H288.1l130.51.13h0c-.23,7.13.06,18,.41,19.39a16.52,16.52,0,0,0,16.15,12.74H275.79Z"/><rect class="cls-51" x="310.57" y="147.51" width="29.48" height="29.48"/><path class="cls-43" d="M315.35,163.84a1.77,1.77,0,0,1,2.5-2.5c1.09,1.09,3.37,3.74,4.79,5.42l8.41-8.41,1.12-1.12.73-.72,1.36-1.14a1.77,1.77,0,0,1,1.86,2.91l-2.88,2.88h0l-2.18,2.18-.84.85-6.43,6.43h0l-.12.11a1.77,1.77,0,0,1-2.49-.23s-4.18-5-5.83-6.65"/><path class="cls-52" d="M355.17,147.36h29a2.26,2.26,0,0,1,2.25,2.26h0a2.25,2.25,0,0,1-2.25,2.25h-29a2.26,2.26,0,0,1-2.26-2.25h0a2.27,2.27,0,0,1,2.26-2.26"/><path class="cls-52" d="M355.17,160h69.68a2.25,2.25,0,0,1,2.25,2.25h0a2.26,2.26,0,0,1-2.25,2.26H355.17a2.26,2.26,0,0,1-2.26-2.26h0a2.26,2.26,0,0,1,2.26-2.25"/><path class="cls-52" d="M355.17,172.63h69.68a2.25,2.25,0,0,1,2.25,2.25h0a2.26,2.26,0,0,1-2.25,2.26H355.17a2.26,2.26,0,0,1-2.26-2.26h0a2.26,2.26,0,0,1,2.26-2.25"/><rect class="cls-51" x="310.57" y="199.4" width="29.48" height="29.48"/><rect class="cls-51" x="310.57" y="251.28" width="29.48" height="29.48"/><path class="cls-43" d="M315.35,215.73a1.77,1.77,0,0,1,2.5-2.5c1.09,1.09,3.37,3.73,4.79,5.41l8.41-8.4,1.12-1.12.73-.73,1.36-1.13a1.77,1.77,0,0,1,1.86,2.91l-2.88,2.88h0l-2.18,2.18-.84.84-6.43,6.43h0l-.12.11a1.77,1.77,0,0,1-2.49-.23s-4.18-5-5.83-6.65"/><path class="cls-43" d="M315.35,267.61a1.77,1.77,0,0,1,2.5-2.5c1.09,1.09,3.37,3.74,4.79,5.42l8.41-8.41,1.12-1.12.73-.72,1.36-1.14a1.77,1.77,0,0,1,1.86,2.91l-2.88,2.88h0l-2.18,2.18-.84.85-6.43,6.43h0l-.12.11a1.77,1.77,0,0,1-2.49-.23s-4.18-5-5.83-6.65"/><path class="cls-52" d="M355.17,199.25h29a2.25,2.25,0,0,1,2.25,2.25h0a2.26,2.26,0,0,1-2.25,2.26h-29a2.27,2.27,0,0,1-2.26-2.26h0a2.26,2.26,0,0,1,2.26-2.25"/><path class="cls-52" d="M355.17,251.13h29a2.26,2.26,0,0,1,2.25,2.26h0a2.25,2.25,0,0,1-2.25,2.25h-29a2.26,2.26,0,0,1-2.26-2.25h0a2.27,2.27,0,0,1,2.26-2.26"/><path class="cls-52" d="M355.17,211.88h69.68a2.25,2.25,0,0,1,2.25,2.25h0a2.26,2.26,0,0,1-2.25,2.26H355.17a2.26,2.26,0,0,1-2.26-2.26h0a2.26,2.26,0,0,1,2.26-2.25"/><path class="cls-52" d="M355.17,263.76h69.68A2.26,2.26,0,0,1,427.1,266h0a2.26,2.26,0,0,1-2.25,2.26H355.17a2.26,2.26,0,0,1-2.26-2.26h0a2.26,2.26,0,0,1,2.26-2.26"/><path class="cls-52" d="M355.17,224.51h69.68a2.26,2.26,0,0,1,2.25,2.26h0a2.25,2.25,0,0,1-2.25,2.25H355.17a2.26,2.26,0,0,1-2.26-2.25h0a2.26,2.26,0,0,1,2.26-2.26"/><path class="cls-52" d="M355.17,276.4h69.68a2.25,2.25,0,0,1,2.25,2.25h0a2.26,2.26,0,0,1-2.25,2.26H355.17a2.26,2.26,0,0,1-2.26-2.26h0a2.26,2.26,0,0,1,2.26-2.25"/><path class="cls-53" d="M490.37,224.77H629.16a11.66,11.66,0,0,1,11.62,11.62V382l-162-3.3V236.39a11.66,11.66,0,0,1,11.62-11.62"/><g class="cls-54"><rect class="cls-55" x="469.91" y="224.77" width="162.03" height="157.21"/></g><path class="cls-56" d="M480.64,224.77H621.2a10.78,10.78,0,0,1,10.74,10.74V262h-162v-26.5a10.77,10.77,0,0,1,10.73-10.74"/><path class="cls-53" d="M515.85,236.93a6.64,6.64,0,1,1-6.64,6.64,6.63,6.63,0,0,1,6.64-6.64"/><path class="cls-53" d="M585,236.93a6.64,6.64,0,1,1-6.63,6.64,6.63,6.63,0,0,1,6.63-6.64"/><path class="cls-57" d="M514.58,209.51h0a12,12,0,0,1,12,12v3.28h-6.27v-3.28a5.74,5.74,0,0,0-5.71-5.71h0a5.74,5.74,0,0,0-5.71,5.71V234.6a5.74,5.74,0,0,0,5.71,5.71,3.22,3.22,0,0,1,2.68,3.29,2.87,2.87,0,0,1-2.68,3,12,12,0,0,1-12-12V221.49a12,12,0,0,1,12-12"/><path class="cls-57" d="M583.75,209.51h0a12,12,0,0,1,12,12v3.28h-6.26v-3.28a5.74,5.74,0,0,0-5.71-5.71h0a5.74,5.74,0,0,0-5.71,5.71V234.6a5.74,5.74,0,0,0,5.71,5.71,3.21,3.21,0,0,1,2.67,3.29,2.86,2.86,0,0,1-2.67,3,12,12,0,0,1-12-12V221.49a12,12,0,0,1,12-12"/><rect class="cls-58" x="489.51" y="348.12" width="20.16" height="20.16"/><rect class="cls-58" x="524.06" y="348.12" width="20.16" height="20.16"/><rect class="cls-58" x="558.62" y="348.12" width="20.16" height="20.16"/><rect class="cls-58" x="593.1" y="348.07" width="20.3" height="20.3"/><rect class="cls-58" x="489.51" y="312.79" width="20.16" height="20.16"/><rect class="cls-58" x="489.51" y="277.47" width="20.16" height="20.16"/><rect class="cls-58" x="524.06" y="312.79" width="20.16" height="20.16"/><rect class="cls-58" x="524.06" y="277.47" width="20.16" height="20.16"/><rect class="cls-58" x="558.62" y="312.79" width="20.16" height="20.16"/><rect class="cls-58" x="558.62" y="277.47" width="20.16" height="20.16"/><rect class="cls-58" x="593.17" y="312.79" width="20.16" height="20.16"/><rect class="cls-58" x="593.17" y="277.47" width="20.16" height="20.16"/><path class="cls-59" d="M558.25,346.81h0a2,2,0,0,1,2.85,0l19.77,19.77a2,2,0,0,1,0,2.84h0a2,2,0,0,1-2.85,0l-19.77-19.77a2,2,0,0,1,0-2.84"/><path class="cls-59" d="M580.87,346.81h0a2,2,0,0,0-2.85,0l-19.77,19.77a2,2,0,0,0,0,2.84h0a2,2,0,0,0,2.85,0l19.77-19.77a2,2,0,0,0,0-2.84"/><path class="cls-53" d="M523,276h0a2,2,0,0,1,2.85,0l19.77,19.77a2,2,0,0,1,0,2.85h0a2,2,0,0,1-2.85,0L523,278.8a2,2,0,0,1,0-2.85"/><path class="cls-53" d="M545.65,276h0a2,2,0,0,0-2.85,0L523,295.72a2,2,0,0,0,0,2.85h0a2,2,0,0,0,2.85,0l19.77-19.77a2,2,0,0,0,0-2.85"/><path class="cls-60" d="M555.23,283.27a3.5,3.5,0,1,1,5.71-4.06l4.75,6.65,17.06-13.93a3.5,3.5,0,1,1,4.42,5.43l-19.88,16.22-.25.21a3.5,3.5,0,0,1-4.88-.83Z"/><rect class="cls-61" x="307.91" y="328.7" width="18.59" height="39.64"/><rect class="cls-62" x="307.91" y="368.34" width="18.59" height="13.23"/><path class="cls-63" d="M350.51,86.73,381.8,66v37.55a37.51,37.51,0,0,1-31.29-16.78"/><path class="cls-64" d="M381.8,103.51V66l13.78,34.94a37.36,37.36,0,0,1-13.78,2.61"/><path class="cls-65" d="M381.8,66V28.41a37.55,37.55,0,0,1,13.85,72.46Z"/><path class="cls-66" d="M381.8,28.41V66L350.51,86.73A37.56,37.56,0,0,1,381.8,28.41"/><path class="cls-67" d="M485.43,97.16h-10V68.37h10Zm-17.77,0H457.61V65.08h10.05Zm-17.77,0H439.84V74.39h10.05Zm72.81,0h-10V39.32h10ZM437.07,63l36.65-23,5.81,9.42,31.74-21-2.17-3.62L520,26l-4,9.61-2.35-3.95L477.89,55.55l-6-9.87L439.25,66.41ZM503.2,97.16h-10v-44h10Z"/><path class="cls-68" d="M197.66,381.51c-1.62-20.24-12.51-62.38-30-63.32-15.22,11.09,1.75,49.69,6.74,63.32Z"/><rect class="cls-69" x="178.56" y="327.42" width="0.76" height="55.02" transform="translate(-85.5 58.17) rotate(-14.95)"/><polygon class="cls-69" points="191.11 370.47 184.58 374.6 181.77 364.08 174.23 359.97 173.87 360.64 181.12 364.59 184.11 375.79 191.51 371.11 191.11 370.47"/><polygon class="cls-69" points="186.43 353.02 179.9 357.14 177.1 346.63 169.56 342.52 169.19 343.19 176.45 347.14 179.44 358.33 186.84 353.66 186.43 353.02"/><polygon class="cls-69" points="183.53 342.17 177 346.29 174.19 335.78 166.65 331.67 166.29 332.33 173.54 336.29 176.53 347.48 183.93 342.81 183.53 342.17"/><path class="cls-68" d="M186.32,381.58c1-13.09,8.2-40.67,19.51-41.28,9.84,7.18-1.28,32.46-4.5,41.28Z"/><rect class="cls-69" x="180.74" y="363.83" width="35.59" height="0.49" transform="translate(-204.43 461.97) rotate(-75.05)"/><polygon class="cls-69" points="190.66 374.12 194.89 376.79 196.7 369.99 201.58 367.33 201.81 367.76 197.12 370.32 195.19 377.56 190.4 374.54 190.66 374.12"/><polygon class="cls-69" points="193.69 362.83 197.91 365.5 199.73 358.7 204.61 356.04 204.84 356.47 200.15 359.03 198.22 366.27 193.43 363.25 193.69 362.83"/><polygon class="cls-69" points="195.57 355.81 199.79 358.48 201.61 351.68 206.49 349.02 206.72 349.45 202.03 352.01 200.1 359.25 195.31 356.23 195.57 355.81"/><path class="cls-68" d="M175.94,381.51c-3.32-12.71-16.39-40.91-27.63-39.54-8.44,8.78,6.77,31.49,11.48,39.61Z"/><rect class="cls-69" x="159.39" y="346.31" width="0.49" height="35.59" transform="translate(-138.88 101.53) rotate(-24.99)"/><polygon class="cls-69" points="169.14 372.63 165.44 376 162.47 369.62 157.21 367.85 157.05 368.31 162.12 370.01 165.28 376.81 169.47 372.99 169.14 372.63"/><polygon class="cls-69" points="164.19 362.04 160.5 365.4 157.52 359.02 152.26 357.26 152.1 357.72 157.17 359.42 160.33 366.22 164.52 362.4 164.19 362.04"/><polygon class="cls-69" points="161.12 355.46 157.42 358.82 154.45 352.44 149.18 350.67 149.02 351.14 154.09 352.84 157.26 359.63 161.45 355.82 161.12 355.46"/></svg>